<svg xmlns="http://www.w3.org/2000/svg" width="39.096" height="40.554" viewBox="0 0 39.096 40.554">
  <path id="Icon_ionic-md-checkmark-circle-outline" data-name="Icon ionic-md-checkmark-circle-outline" d="M14.908,19.8l-2.737,2.839,8.8,9.125L40.516,11.486,37.779,8.647,20.968,25.983Zm23.653,3.852c0,8.922-7.038,16.221-15.638,16.221S7.285,32.573,7.285,23.652,14.322,7.43,22.923,7.43a15.229,15.229,0,0,1,4.3.608L30.253,4.9a17.62,17.62,0,0,0-7.33-1.521C12.172,3.375,3.375,12.5,3.375,23.652s8.8,20.277,19.548,20.277S42.471,34.8,42.471,23.652Z" transform="translate(-3.375 -3.375)" fill="#114765"/>
</svg>
