<svg xmlns="http://www.w3.org/2000/svg" width="43.617" height="40.554" viewBox="0 0 43.617 40.554">
  <path id="Icon_awesome-door-open" data-name="Icon awesome-door-open" d="M42.527,35.484H37.075V8.986c0-2.159-1.467-3.917-3.271-3.917H26.17v5.069h6.543V40.554h9.814a1.189,1.189,0,0,0,1.09-1.267V36.752A1.189,1.189,0,0,0,42.527,35.484ZM21.28.08,8.195,4.02A2.583,2.583,0,0,0,6.543,6.568V35.484H1.09A1.189,1.189,0,0,0,0,36.752v2.535a1.189,1.189,0,0,0,1.09,1.267h22.9V2.628c0-1.709-1.333-2.963-2.71-2.548ZM17.992,22.811c-.9,0-1.636-1.135-1.636-2.535s.733-2.535,1.636-2.535,1.636,1.135,1.636,2.535S18.9,22.811,17.992,22.811Z" transform="translate(0 0)" fill="#114765"/>
</svg>
