<svg xmlns="http://www.w3.org/2000/svg" width="30.605" height="40.554" viewBox="0 0 30.605 40.554">
  <path id="Icon_metro-file-archive" data-name="Icon metro-file-archive" d="M15.608,11.138v-2.9h-2.55v2.9Zm2.55,2.9v-2.9h-2.55v2.9Zm-2.55,2.9v-2.9h-2.55v2.9Zm2.55,2.9v-2.9h-2.55v2.9Zm13.947-8.781a5.4,5.4,0,0,1,.956,1.72,5.826,5.826,0,0,1,.4,1.991v26.07a2.247,2.247,0,0,1-.558,1.539A1.741,1.741,0,0,1,31.548,43H4.769a1.741,1.741,0,0,1-1.355-.634,2.247,2.247,0,0,1-.558-1.539V4.621a2.247,2.247,0,0,1,.558-1.539,1.741,1.741,0,0,1,1.355-.634H22.622a4.143,4.143,0,0,1,1.753.453A4.61,4.61,0,0,1,25.89,3.987ZM23.259,5.526v8.509h7.492a2.587,2.587,0,0,0-.438-.928L24.076,6.024a2.116,2.116,0,0,0-.817-.5Zm7.651,34.579V16.932H22.622a1.741,1.741,0,0,1-1.355-.634,2.247,2.247,0,0,1-.558-1.539V5.345h-2.55v2.9h-2.55v-2.9H5.407v34.76h25.5ZM18.418,23.789l2.132,7.9a4.658,4.658,0,0,1,.159,1.177,3.918,3.918,0,0,1-1.445,3.112,5.433,5.433,0,0,1-3.656,1.233,5.433,5.433,0,0,1-3.656-1.233,3.918,3.918,0,0,1-1.445-3.112,4.658,4.658,0,0,1,.159-1.177q.418-1.426,2.391-8.962v-2.9h2.55v2.9h1.574a1.151,1.151,0,0,1,.777.294,1.462,1.462,0,0,1,.458.769ZM15.608,34.312a3.559,3.559,0,0,0,1.8-.43,1.068,1.068,0,0,0,0-2.037,3.559,3.559,0,0,0-1.8-.43,3.559,3.559,0,0,0-1.8.43,1.068,1.068,0,0,0,0,2.037A3.558,3.558,0,0,0,15.608,34.312Z" transform="translate(-2.856 -2.448)" fill="#114765"/>
</svg>
