<svg xmlns="http://www.w3.org/2000/svg" width="33.892" height="40.554" viewBox="0 0 33.892 40.554">
  <path id="Icon_material-timer" data-name="Icon material-timer" d="M27.094,1.5H15.8V5.362h11.3ZM19.563,26.6h3.766V15.018H19.563ZM34.682,13.84,37.356,11.1A21.077,21.077,0,0,0,34.7,8.375l-2.674,2.742A16.614,16.614,0,0,0,21.446,7.293,17.168,17.168,0,0,0,4.5,24.674a17.156,17.156,0,0,0,16.946,17.38,17.156,17.156,0,0,0,16.946-17.38A17.587,17.587,0,0,0,34.682,13.84ZM21.446,38.191A13.342,13.342,0,0,1,8.266,24.674a13.342,13.342,0,0,1,13.18-13.518,13.342,13.342,0,0,1,13.18,13.518A13.342,13.342,0,0,1,21.446,38.191Z" transform="translate(-4.5 -1.5)" fill="#114765"/>
</svg>
