<svg xmlns="http://www.w3.org/2000/svg" viewBox="0 0 400.47 318.05"><defs><style>.cls-1{fill:#405b91;}.cls-2{fill:#6cdd6c;}.cls-3{fill:#50aa50;}.cls-4{fill:#fff;}.cls-5,.cls-7{fill:#415b91;}.cls-6,.cls-8{fill:#b6d0fb;}.cls-6,.cls-7{fill-rule:evenodd;}.cls-9{fill:#3f5b91;}.cls-10{fill:#d7e7ff;}</style></defs><g id="OBJECTS"><path class="cls-1" d="M117.36,387.85h-3.28l-1.83-7.12c-.07-.26-.19-.78-.35-1.57s-.26-1.33-.29-1.61c0,.34-.13.88-.27,1.61s-.27,1.27-.35,1.59l-1.82,7.1H105.9l-3.46-13.56h2.83l1.73,7.4c.31,1.37.53,2.55.66,3.56,0-.36.12-.9.26-1.64s.26-1.31.37-1.72l2-7.6H113l2,7.6q.14.51.33,1.56c.13.69.23,1.3.3,1.8.06-.49.16-1.09.29-1.81s.26-1.3.37-1.75l1.73-7.4h2.83Z" transform="translate(-49.76 -90.98)"/><path class="cls-1" d="M127,388a5.37,5.37,0,0,1-3.92-1.38,5.26,5.26,0,0,1-1.41-3.92,5.75,5.75,0,0,1,1.31-4,4.62,4.62,0,0,1,3.6-1.42,4.52,4.52,0,0,1,3.42,1.25,4.72,4.72,0,0,1,1.23,3.46v1.37h-6.69a2.72,2.72,0,0,0,.71,1.88,2.49,2.49,0,0,0,1.88.68,7.81,7.81,0,0,0,1.77-.19,8.91,8.91,0,0,0,1.74-.62v2.19a6.87,6.87,0,0,1-1.58.55A10.11,10.11,0,0,1,127,388Zm-.4-8.74a1.79,1.79,0,0,0-1.41.57,2.65,2.65,0,0,0-.59,1.62h4a2.36,2.36,0,0,0-.54-1.62A1.87,1.87,0,0,0,126.59,379.3Z" transform="translate(-49.76 -90.98)"/><path class="cls-1" d="M139.29,377.29a3.36,3.36,0,0,1,2.88,1.43,6.58,6.58,0,0,1,1,3.93,6.43,6.43,0,0,1-1.07,4,3.73,3.73,0,0,1-5.78.08h-.2l-.47,1.14h-2.16V373.42h2.83v3.36c0,.42,0,1.11-.11,2.05h.11A3.26,3.26,0,0,1,139.29,377.29Zm-.91,2.26a1.78,1.78,0,0,0-1.53.64,3.7,3.7,0,0,0-.5,2.13v.31a4.37,4.37,0,0,0,.49,2.39,1.8,1.8,0,0,0,1.58.73,1.56,1.56,0,0,0,1.38-.81,4.26,4.26,0,0,0,.52-2.33,4.12,4.12,0,0,0-.52-2.3A1.63,1.63,0,0,0,138.38,379.55Z" transform="translate(-49.76 -90.98)"/><path class="cls-1" d="M152.78,384.77a2.84,2.84,0,0,1-1.11,2.43,5.47,5.47,0,0,1-3.32.84,9.81,9.81,0,0,1-1.93-.16,7,7,0,0,1-1.49-.45V385.1a10.88,10.88,0,0,0,1.78.62,7,7,0,0,0,1.74.25c1,0,1.54-.3,1.54-.89a.72.72,0,0,0-.21-.54,2.93,2.93,0,0,0-.7-.48c-.34-.17-.78-.38-1.34-.61a9,9,0,0,1-1.76-.93,2.66,2.66,0,0,1-.81-1,3.23,3.23,0,0,1-.26-1.36A2.48,2.48,0,0,1,146,378a5.27,5.27,0,0,1,3-.75,8.69,8.69,0,0,1,3.65.81l-.86,2c-.52-.22-1-.4-1.45-.54a4.39,4.39,0,0,0-1.39-.22c-.83,0-1.25.23-1.25.68a.81.81,0,0,0,.41.66,10.56,10.56,0,0,0,1.76.82,8.32,8.32,0,0,1,1.78.92,2.79,2.79,0,0,1,.84,1A3,3,0,0,1,152.78,384.77Z" transform="translate(-49.76 -90.98)"/><path class="cls-1" d="M154.87,374.8c0-.92.51-1.38,1.54-1.38s1.54.46,1.54,1.38a1.32,1.32,0,0,1-.39,1,1.59,1.59,0,0,1-1.15.37C155.38,376.19,154.87,375.73,154.87,374.8Zm2.95,13.05H155V377.48h2.83Z" transform="translate(-49.76 -90.98)"/><path class="cls-1" d="M165.15,385.78a6.05,6.05,0,0,0,1.79-.32v2.11a6.5,6.5,0,0,1-2.6.47,3.17,3.17,0,0,1-2.47-.86,3.71,3.71,0,0,1-.78-2.57v-5h-1.35v-1.19l1.55-1,.82-2.19h1.81v2.21h2.9v2.12h-2.9v5a1.1,1.1,0,0,0,.34.89A1.32,1.32,0,0,0,165.15,385.78Z" transform="translate(-49.76 -90.98)"/><path class="cls-1" d="M173.73,388a5.37,5.37,0,0,1-3.92-1.38,5.26,5.26,0,0,1-1.41-3.92,5.75,5.75,0,0,1,1.31-4,4.61,4.61,0,0,1,3.6-1.42,4.54,4.54,0,0,1,3.42,1.25A4.72,4.72,0,0,1,178,382v1.37h-6.69a2.72,2.72,0,0,0,.71,1.88,2.49,2.49,0,0,0,1.88.68,7.81,7.81,0,0,0,1.77-.19,8.91,8.91,0,0,0,1.74-.62v2.19a6.87,6.87,0,0,1-1.58.55A10.11,10.11,0,0,1,173.73,388Zm-.4-8.74a1.79,1.79,0,0,0-1.41.57,2.65,2.65,0,0,0-.59,1.62h4a2.36,2.36,0,0,0-.54-1.62A1.87,1.87,0,0,0,173.33,379.3Z" transform="translate(-49.76 -90.98)"/><path class="cls-1" d="M185.07,374.8c0-.92.52-1.38,1.54-1.38s1.54.46,1.54,1.38a1.35,1.35,0,0,1-.38,1,1.6,1.6,0,0,1-1.16.37C185.59,376.19,185.07,375.73,185.07,374.8Zm3,13.05h-2.83V377.48H188Z" transform="translate(-49.76 -90.98)"/><path class="cls-1" d="M198.23,384.77a2.84,2.84,0,0,1-1.11,2.43,5.47,5.47,0,0,1-3.32.84,9.74,9.74,0,0,1-1.93-.16,7,7,0,0,1-1.49-.45V385.1a10.56,10.56,0,0,0,1.78.62,6.94,6.94,0,0,0,1.74.25c1,0,1.54-.3,1.54-.89a.72.72,0,0,0-.21-.54,2.93,2.93,0,0,0-.7-.48c-.34-.17-.78-.38-1.34-.61a9,9,0,0,1-1.76-.93,2.66,2.66,0,0,1-.81-1,3.23,3.23,0,0,1-.26-1.36,2.48,2.48,0,0,1,1.07-2.14,5.27,5.27,0,0,1,3-.75,8.69,8.69,0,0,1,3.65.81l-.86,2c-.52-.22-1-.4-1.45-.54a4.44,4.44,0,0,0-1.39-.22c-.83,0-1.25.23-1.25.68a.81.81,0,0,0,.41.66,10.56,10.56,0,0,0,1.76.82,8.32,8.32,0,0,1,1.78.92,2.79,2.79,0,0,1,.84,1A3,3,0,0,1,198.23,384.77Z" transform="translate(-49.76 -90.98)"/><path class="cls-1" d="M216.63,374.29v8.78a5,5,0,0,1-.67,2.63,4.31,4.31,0,0,1-1.94,1.73,6.85,6.85,0,0,1-3,.61A5.76,5.76,0,0,1,207,386.7,4.75,4.75,0,0,1,205.5,383v-8.74h2.87v8.3a3.47,3.47,0,0,0,.63,2.3,2.63,2.63,0,0,0,2.09.74,2.55,2.55,0,0,0,2-.74,3.48,3.48,0,0,0,.64-2.32v-8.28Z" transform="translate(-49.76 -90.98)"/><path class="cls-1" d="M229.31,387.85h-2.83v-6.06a3,3,0,0,0-.4-1.68,1.47,1.47,0,0,0-1.27-.56,1.91,1.91,0,0,0-1.72.79,5,5,0,0,0-.53,2.63v4.88h-2.83V377.48h2.16l.38,1.33h.16a3,3,0,0,1,1.31-1.14,4.36,4.36,0,0,1,1.88-.38,3.63,3.63,0,0,1,2.75,1,4,4,0,0,1,.94,2.83Z" transform="translate(-49.76 -90.98)"/><path class="cls-1" d="M235.5,388a3.37,3.37,0,0,1-2.87-1.42,6.59,6.59,0,0,1-1-3.94,6.51,6.51,0,0,1,1.06-4,3.46,3.46,0,0,1,2.93-1.42,3.38,3.38,0,0,1,3,1.52h.09a11.88,11.88,0,0,1-.21-2.07v-3.32h2.83v14.43h-2.17l-.54-1.34h-.12A3.26,3.26,0,0,1,235.5,388Zm1-2.26a1.93,1.93,0,0,0,1.59-.63,3.63,3.63,0,0,0,.55-2.14v-.31a4.26,4.26,0,0,0-.51-2.39,1.94,1.94,0,0,0-1.68-.72,1.65,1.65,0,0,0-1.47.8,4.26,4.26,0,0,0-.52,2.33A4.1,4.1,0,0,0,235,385,1.74,1.74,0,0,0,236.5,385.78Z" transform="translate(-49.76 -90.98)"/><path class="cls-1" d="M248.94,388a5.37,5.37,0,0,1-3.92-1.38,5.26,5.26,0,0,1-1.41-3.92,5.75,5.75,0,0,1,1.31-4,4.63,4.63,0,0,1,3.6-1.42,4.52,4.52,0,0,1,3.42,1.25,4.72,4.72,0,0,1,1.23,3.46v1.37h-6.69a2.72,2.72,0,0,0,.71,1.88,2.49,2.49,0,0,0,1.88.68,7.81,7.81,0,0,0,1.77-.19,8.91,8.91,0,0,0,1.74-.62v2.19a6.87,6.87,0,0,1-1.58.55A10.11,10.11,0,0,1,248.94,388Zm-.4-8.74a1.79,1.79,0,0,0-1.41.57,2.65,2.65,0,0,0-.59,1.62h4a2.41,2.41,0,0,0-.55-1.62A1.85,1.85,0,0,0,248.54,379.3Z" transform="translate(-49.76 -90.98)"/><path class="cls-1" d="M261.26,377.29a4.26,4.26,0,0,1,.95.08L262,380a3.34,3.34,0,0,0-.83-.09,3,3,0,0,0-2.12.7,2.51,2.51,0,0,0-.75,1.94v5.28h-2.83V377.48h2.14l.42,1.74h.14a3.8,3.8,0,0,1,1.3-1.4A3.18,3.18,0,0,1,261.26,377.29Z" transform="translate(-49.76 -90.98)"/><path class="cls-1" d="M275,387.85l-3.27-10.64h-.08c.12,2.17.18,3.61.18,4.33v6.31h-2.57V374.29h3.91l3.21,10.37h.06l3.4-10.37h3.92v13.56h-2.68v-6.42c0-.3,0-.65,0-1.05s.05-1.44.12-3.15h-.08l-3.5,10.62Z" transform="translate(-49.76 -90.98)"/><path class="cls-1" d="M293.53,387.85l-.54-1.41h-.08a4.06,4.06,0,0,1-1.47,1.25,4.76,4.76,0,0,1-2,.35,3.17,3.17,0,0,1-2.35-.86,3.26,3.26,0,0,1-.86-2.43,2.73,2.73,0,0,1,1.16-2.43,6.75,6.75,0,0,1,3.48-.87l1.8-.05v-.46a1.42,1.42,0,0,0-1.62-1.58,7.26,7.26,0,0,0-2.92.76l-.93-1.92a8.45,8.45,0,0,1,4-.93,4.94,4.94,0,0,1,3.2.91,3.34,3.34,0,0,1,1.11,2.76v6.91Zm-.83-4.8-1.1,0a3.55,3.55,0,0,0-1.83.45,1.41,1.41,0,0,0-.61,1.24q0,1.2,1.38,1.2a2.16,2.16,0,0,0,1.57-.57,2,2,0,0,0,.59-1.5Z" transform="translate(-49.76 -90.98)"/><path class="cls-1" d="M298.3,374.8c0-.92.52-1.38,1.54-1.38s1.54.46,1.54,1.38a1.35,1.35,0,0,1-.38,1,1.6,1.6,0,0,1-1.16.37C298.82,376.19,298.3,375.73,298.3,374.8Zm2.95,13.05h-2.83V377.48h2.83Z" transform="translate(-49.76 -90.98)"/><path class="cls-1" d="M313.8,387.85H311v-6.06a3,3,0,0,0-.4-1.68,1.47,1.47,0,0,0-1.27-.56,1.9,1.9,0,0,0-1.72.79,5,5,0,0,0-.53,2.63v4.88h-2.83V377.48h2.16l.38,1.33h.16a3.06,3.06,0,0,1,1.3-1.14,4.43,4.43,0,0,1,1.89-.38,3.64,3.64,0,0,1,2.75,1,4,4,0,0,1,.94,2.83Z" transform="translate(-49.76 -90.98)"/><path class="cls-1" d="M321.08,385.78a6,6,0,0,0,1.78-.32v2.11a6.46,6.46,0,0,1-2.6.47,3.19,3.19,0,0,1-2.47-.86,3.71,3.71,0,0,1-.77-2.57v-5h-1.36v-1.19l1.56-1,.82-2.19h1.8v2.21h2.91v2.12h-2.91v5a1.14,1.14,0,0,0,.34.89A1.36,1.36,0,0,0,321.08,385.78Z" transform="translate(-49.76 -90.98)"/><path class="cls-1" d="M329.65,388a5.35,5.35,0,0,1-3.91-1.38,5.26,5.26,0,0,1-1.41-3.92,5.75,5.75,0,0,1,1.3-4,4.63,4.63,0,0,1,3.6-1.42,4.56,4.56,0,0,1,3.43,1.25,4.76,4.76,0,0,1,1.22,3.46v1.37h-6.69a2.68,2.68,0,0,0,.72,1.88,2.47,2.47,0,0,0,1.87.68,7.69,7.69,0,0,0,1.77-.19,9.22,9.22,0,0,0,1.75-.62v2.19a7.12,7.12,0,0,1-1.59.55A10,10,0,0,1,329.65,388Zm-.4-8.74a1.79,1.79,0,0,0-1.41.57,2.64,2.64,0,0,0-.58,1.62h4a2.36,2.36,0,0,0-.55-1.62A1.85,1.85,0,0,0,329.25,379.3Z" transform="translate(-49.76 -90.98)"/><path class="cls-1" d="M345.76,387.85h-2.83v-6.06a3,3,0,0,0-.4-1.68,1.47,1.47,0,0,0-1.27-.56,1.9,1.9,0,0,0-1.72.79A5,5,0,0,0,339,383v4.88h-2.83V377.48h2.16l.38,1.33h.16a3.06,3.06,0,0,1,1.3-1.14,4.43,4.43,0,0,1,1.89-.38,3.64,3.64,0,0,1,2.75,1,4,4,0,0,1,.94,2.83Z" transform="translate(-49.76 -90.98)"/><path class="cls-1" d="M355.26,387.85l-.55-1.41h-.08a4.12,4.12,0,0,1-1.46,1.25,4.84,4.84,0,0,1-2,.35,3.19,3.19,0,0,1-2.35-.86,3.26,3.26,0,0,1-.86-2.43,2.73,2.73,0,0,1,1.16-2.43,6.75,6.75,0,0,1,3.48-.87l1.8-.05v-.46a1.41,1.41,0,0,0-1.61-1.58,7.26,7.26,0,0,0-2.93.76L349,378.2a8.48,8.48,0,0,1,4-.93,4.92,4.92,0,0,1,3.2.91,3.34,3.34,0,0,1,1.11,2.76v6.91Zm-.84-4.8-1.09,0a3.56,3.56,0,0,0-1.84.45,1.4,1.4,0,0,0-.6,1.24c0,.8.45,1.2,1.37,1.2a2.15,2.15,0,0,0,1.57-.57,1.94,1.94,0,0,0,.59-1.5Z" transform="translate(-49.76 -90.98)"/><path class="cls-1" d="M369.72,387.85h-2.83v-6.06a2.89,2.89,0,0,0-.4-1.68,1.45,1.45,0,0,0-1.27-.56,1.92,1.92,0,0,0-1.72.79A5,5,0,0,0,363,383v4.88h-2.83V377.48h2.16l.38,1.33h.15a3,3,0,0,1,1.31-1.14,4.37,4.37,0,0,1,1.89-.38,3.62,3.62,0,0,1,2.74,1,3.93,3.93,0,0,1,.94,2.83Z" transform="translate(-49.76 -90.98)"/><path class="cls-1" d="M376.84,388c-3.22,0-4.84-1.77-4.84-5.32a5.67,5.67,0,0,1,1.32-4,5,5,0,0,1,3.78-1.39,7.18,7.18,0,0,1,3.22.7l-.83,2.19c-.45-.18-.86-.33-1.24-.44a3.86,3.86,0,0,0-1.15-.17c-1.48,0-2.21,1-2.21,3.13s.73,3.05,2.21,3.05a5.25,5.25,0,0,0,1.51-.22,5.57,5.57,0,0,0,1.39-.68v2.42a4.54,4.54,0,0,1-1.39.6A7.85,7.85,0,0,1,376.84,388Z" transform="translate(-49.76 -90.98)"/><path class="cls-1" d="M387.1,388a5.37,5.37,0,0,1-3.92-1.38,5.26,5.26,0,0,1-1.41-3.92,5.75,5.75,0,0,1,1.31-4,4.62,4.62,0,0,1,3.6-1.42,4.54,4.54,0,0,1,3.42,1.25,4.72,4.72,0,0,1,1.23,3.46v1.37h-6.69a2.72,2.72,0,0,0,.71,1.88,2.49,2.49,0,0,0,1.88.68,7.81,7.81,0,0,0,1.77-.19,9.14,9.14,0,0,0,1.74-.62v2.19a6.87,6.87,0,0,1-1.58.55A10.11,10.11,0,0,1,387.1,388Zm-.4-8.74a1.79,1.79,0,0,0-1.41.57,2.65,2.65,0,0,0-.59,1.62h4a2.36,2.36,0,0,0-.54-1.62A1.87,1.87,0,0,0,386.7,379.3Z" transform="translate(-49.76 -90.98)"/><path class="cls-1" d="M393.23,386.53a1.54,1.54,0,0,1,.42-1.18,1.65,1.65,0,0,1,1.21-.4,1.61,1.61,0,0,1,1.19.41,1.81,1.81,0,0,1,0,2.32,1.63,1.63,0,0,1-1.19.42,1.7,1.7,0,0,1-1.21-.41A1.54,1.54,0,0,1,393.23,386.53Z" transform="translate(-49.76 -90.98)"/><path class="cls-1" d="M205.32,399.57l-2.42,9.28h-1.67l-1.54-5.56c0-.13-.09-.29-.13-.48s-.09-.38-.14-.57-.08-.37-.11-.54-.06-.29-.07-.37c0,.08,0,.21-.06.37s-.06.34-.1.53-.08.38-.13.57-.09.36-.13.5l-1.52,5.55h-1.66l-2.42-9.28h1.53l1.34,5.44c0,.18.09.36.13.57s.09.4.13.6.08.4.11.59.06.37.08.53q0-.24.09-.54c0-.19.07-.4.11-.6s.08-.4.12-.59.09-.37.14-.52l1.51-5.48H200l1.54,5.5c.05.16.09.33.14.53s.08.39.13.59.08.4.11.59.06.37.08.52c0-.21.07-.45.12-.71s.1-.54.16-.81.11-.53.17-.77l1.34-5.44Z" transform="translate(-49.76 -90.98)"/><path class="cls-1" d="M207.24,399.13a1,1,0,0,1,.59.19.72.72,0,0,1,.25.63.75.75,0,0,1-.25.64,1,1,0,0,1-.59.18,1,1,0,0,1-.6-.18.77.77,0,0,1-.24-.64.74.74,0,0,1,.24-.63A1,1,0,0,1,207.24,399.13Zm.74,2.7v7h-1.5v-7Z" transform="translate(-49.76 -90.98)"/><path class="cls-1" d="M211.61,408.85h-1.5V399h1.5Z" transform="translate(-49.76 -90.98)"/><path class="cls-1" d="M215.23,408.85h-1.5V399h1.5Z" transform="translate(-49.76 -90.98)"/><path class="cls-1" d="M222.23,399v2.38q0,.4,0,.81c0,.26,0,.47,0,.62h.07A2.36,2.36,0,0,1,223,402a2.47,2.47,0,0,1,1.31-.31,2.5,2.5,0,0,1,2,.92,4.19,4.19,0,0,1,.76,2.71,5.17,5.17,0,0,1-.35,2A2.55,2.55,0,0,1,224.3,409a2.58,2.58,0,0,1-1.3-.29,2.73,2.73,0,0,1-.77-.69h-.11l-.27.85h-1.12V399Zm1.71,3.93a1.78,1.78,0,0,0-1,.26,1.41,1.41,0,0,0-.53.75,4.22,4.22,0,0,0-.17,1.28v.14a3.49,3.49,0,0,0,.37,1.79,1.43,1.43,0,0,0,1.35.63,1.37,1.37,0,0,0,1.2-.64,4.11,4.11,0,0,0,0-3.6A1.39,1.39,0,0,0,223.94,402.91Z" transform="translate(-49.76 -90.98)"/><path class="cls-1" d="M231.63,401.69a3.17,3.17,0,0,1,1.61.39,2.61,2.61,0,0,1,1,1.1,3.59,3.59,0,0,1,.37,1.7v.8h-4.7a2.32,2.32,0,0,0,.55,1.57,1.93,1.93,0,0,0,1.47.56,5.54,5.54,0,0,0,1.21-.13,6.71,6.71,0,0,0,1.11-.39v1.21a4.85,4.85,0,0,1-1.07.37,7,7,0,0,1-1.31.11,3.9,3.9,0,0,1-1.82-.4,2.88,2.88,0,0,1-1.22-1.2,4,4,0,0,1-.44-2,4.68,4.68,0,0,1,.39-2,3,3,0,0,1,1.13-1.26A3.29,3.29,0,0,1,231.63,401.69Zm0,1.13a1.51,1.51,0,0,0-1.14.45,2.18,2.18,0,0,0-.51,1.34h3.2a2.65,2.65,0,0,0-.18-.93,1.4,1.4,0,0,0-.51-.64A1.5,1.5,0,0,0,231.63,402.82Z" transform="translate(-49.76 -90.98)"/><path class="cls-1" d="M239.85,399.57h2.76a5.68,5.68,0,0,1,2.71.52,1.9,1.9,0,0,1,.91,1.8,2.42,2.42,0,0,1-.18,1,1.84,1.84,0,0,1-.55.71,2.09,2.09,0,0,1-.87.37V404a2.88,2.88,0,0,1,1,.34,1.78,1.78,0,0,1,.67.69,2.87,2.87,0,0,1-.16,2.61,2.56,2.56,0,0,1-1.15.91,4.55,4.55,0,0,1-1.77.31h-3.33Zm1.52,3.83h1.46a2.27,2.27,0,0,0,1.44-.34,1.22,1.22,0,0,0,.4-1,1,1,0,0,0-.48-.95,2.87,2.87,0,0,0-1.5-.29h-1.32Zm0,1.23v2.95H243a2.14,2.14,0,0,0,1.49-.41,1.48,1.48,0,0,0,.44-1.12,1.4,1.4,0,0,0-.2-.75,1.23,1.23,0,0,0-.63-.49,3.14,3.14,0,0,0-1.18-.18Z" transform="translate(-49.76 -90.98)"/><path class="cls-1" d="M251,401.69a3,3,0,0,1,2,.59,2.33,2.33,0,0,1,.68,1.84v4.73h-1.06l-.29-1h-.05a4.08,4.08,0,0,1-.61.63,2.57,2.57,0,0,1-.74.37,3.68,3.68,0,0,1-1,.12,2.67,2.67,0,0,1-1.12-.23,1.86,1.86,0,0,1-.79-.71,2.33,2.33,0,0,1-.28-1.21,1.85,1.85,0,0,1,.81-1.63,4.77,4.77,0,0,1,2.45-.6l1.22,0v-.37a1.16,1.16,0,0,0-1.3-1.35,3.5,3.5,0,0,0-1,.15,7.15,7.15,0,0,0-1,.37l-.48-1.05a5.76,5.76,0,0,1,2.54-.62Zm1.22,3.81-.91,0a2.8,2.8,0,0,0-1.57.38,1.12,1.12,0,0,0-.45.94.93.93,0,0,0,.31.76,1.37,1.37,0,0,0,.82.23,1.87,1.87,0,0,0,1.29-.44,1.6,1.6,0,0,0,.51-1.29Z" transform="translate(-49.76 -90.98)"/><path class="cls-1" d="M258.64,409a3.62,3.62,0,0,1-1.73-.39,2.57,2.57,0,0,1-1.12-1.18,4.5,4.5,0,0,1-.4-2,4.42,4.42,0,0,1,.44-2.1,2.71,2.71,0,0,1,1.19-1.2,3.83,3.83,0,0,1,1.76-.39,4.47,4.47,0,0,1,1.14.13,3.91,3.91,0,0,1,.86.3l-.44,1.19c-.26-.1-.52-.19-.8-.27a3.09,3.09,0,0,0-.78-.1,1.8,1.8,0,0,0-1,.27,1.6,1.6,0,0,0-.61.81,4,4,0,0,0-.2,1.34,3.84,3.84,0,0,0,.2,1.31,1.67,1.67,0,0,0,.61.8,1.69,1.69,0,0,0,1,.27,3.61,3.61,0,0,0,1-.14,4.84,4.84,0,0,0,.87-.37v1.3a3.59,3.59,0,0,1-.86.34A5,5,0,0,1,258.64,409Z" transform="translate(-49.76 -90.98)"/><path class="cls-1" d="M263.75,399v4.77c0,.22,0,.45,0,.71s0,.49-.05.72h0l.4-.52a6.26,6.26,0,0,1,.44-.52l2.14-2.31h1.72l-2.82,3,3,4h-1.75l-2.25-3.08-.84.72v2.36h-1.49V399Z" transform="translate(-49.76 -90.98)"/><path class="cls-1" d="M278.59,406.33a2.47,2.47,0,0,1-.4,1.42,2.51,2.51,0,0,1-1.15.91,4.49,4.49,0,0,1-1.8.32,7.54,7.54,0,0,1-1-.06,5.59,5.59,0,0,1-.87-.17,4.7,4.7,0,0,1-.75-.26v-1.44a8.93,8.93,0,0,0,1.27.45,5.24,5.24,0,0,0,1.42.2,2.54,2.54,0,0,0,1-.16,1.2,1.2,0,0,0,.58-.44,1.18,1.18,0,0,0,.19-.68,1.1,1.1,0,0,0-.22-.7,2.08,2.08,0,0,0-.67-.52,11.4,11.4,0,0,0-1.12-.51,6.47,6.47,0,0,1-.88-.42,4.06,4.06,0,0,1-.74-.55A2.49,2.49,0,0,1,273,403a2.71,2.71,0,0,1-.18-1,2.34,2.34,0,0,1,.37-1.34,2.41,2.41,0,0,1,1.07-.86,4,4,0,0,1,1.61-.3,6,6,0,0,1,1.37.15,7.31,7.31,0,0,1,1.27.43l-.48,1.23a7.6,7.6,0,0,0-1.11-.37,4,4,0,0,0-1.09-.15,2,2,0,0,0-.82.15,1.06,1.06,0,0,0-.51.41,1.09,1.09,0,0,0-.18.63,1.16,1.16,0,0,0,.2.68,1.81,1.81,0,0,0,.62.5c.28.15.65.32,1.09.51a7.59,7.59,0,0,1,1.31.67,2.59,2.59,0,0,1,.82.83A2.39,2.39,0,0,1,278.59,406.33Z" transform="translate(-49.76 -90.98)"/><path class="cls-1" d="M286.45,405.32a4.66,4.66,0,0,1-.23,1.56,3.18,3.18,0,0,1-.66,1.15,3.09,3.09,0,0,1-1.06.71,3.79,3.79,0,0,1-1.39.24,3.52,3.52,0,0,1-1.32-.24,3,3,0,0,1-1.05-.71,3.37,3.37,0,0,1-.68-1.15,4.65,4.65,0,0,1-.24-1.56,4.38,4.38,0,0,1,.4-2,2.86,2.86,0,0,1,1.15-1.23,3.52,3.52,0,0,1,1.79-.43,3.29,3.29,0,0,1,1.71.43,2.85,2.85,0,0,1,1.16,1.24A4.2,4.2,0,0,1,286.45,405.32Zm-5.1,0a4.23,4.23,0,0,0,.19,1.32,1.71,1.71,0,0,0,.58.83,1.64,1.64,0,0,0,1,.29,1.61,1.61,0,0,0,1-.29,1.59,1.59,0,0,0,.58-.83,4.23,4.23,0,0,0,.19-1.32,4.1,4.1,0,0,0-.19-1.3,1.56,1.56,0,0,0-.58-.82,1.69,1.69,0,0,0-1-.28,1.52,1.52,0,0,0-1.35.62A3.18,3.18,0,0,0,281.35,405.32Z" transform="translate(-49.76 -90.98)"/><path class="cls-1" d="M294.39,405.32a4.93,4.93,0,0,1-.23,1.56,3.2,3.2,0,0,1-.67,1.15,3,3,0,0,1-1.05.71,3.82,3.82,0,0,1-1.39.24,3.58,3.58,0,0,1-1.33-.24,3,3,0,0,1-1-.71,3.39,3.39,0,0,1-.69-1.15,4.65,4.65,0,0,1-.24-1.56,4.38,4.38,0,0,1,.41-2,2.74,2.74,0,0,1,1.15-1.23,3.48,3.48,0,0,1,1.78-.43,3.35,3.35,0,0,1,1.72.43,2.91,2.91,0,0,1,1.16,1.24A4.2,4.2,0,0,1,294.39,405.32Zm-5.1,0a4,4,0,0,0,.19,1.32,1.59,1.59,0,0,0,.58.83,1.92,1.92,0,0,0,2,0,1.71,1.71,0,0,0,.58-.83,4.25,4.25,0,0,0,.18-1.32,4.12,4.12,0,0,0-.18-1.3,1.53,1.53,0,0,0-1.6-1.1,1.55,1.55,0,0,0-1.36.62A3.19,3.19,0,0,0,289.29,405.32Z" transform="translate(-49.76 -90.98)"/><path class="cls-1" d="M299.76,401.69a2.62,2.62,0,0,1,1.85.62,2.51,2.51,0,0,1,.67,2v4.58h-1.49v-4.3a1.92,1.92,0,0,0-.34-1.23,1.28,1.28,0,0,0-1-.41,1.54,1.54,0,0,0-1.42.63,3.39,3.39,0,0,0-.4,1.82v3.49H296.1v-7h1.16l.21.95h.08a2.23,2.23,0,0,1,.57-.61,2.53,2.53,0,0,1,.76-.36A3.28,3.28,0,0,1,299.76,401.69Z" transform="translate(-49.76 -90.98)"/><path class="cls-1" d="M304.14,408.07a.89.89,0,0,1,.27-.74,1.05,1.05,0,0,1,.67-.21,1.08,1.08,0,0,1,.66.21,1.14,1.14,0,0,1,0,1.47,1,1,0,0,1-.66.23,1,1,0,0,1-.67-.23A.89.89,0,0,1,304.14,408.07Zm1.51-2.05h-1.13l-.3-6.45H306Z" transform="translate(-49.76 -90.98)"/><path class="cls-2" d="M317.66,333.88a5.88,5.88,0,0,0-3.53-4A3.64,3.64,0,0,0,309.6,332c-1.62-1.35-4.09-.28-5.39,1.38-2.1,2.68-.47,7.07-.12,7.35a2.72,2.72,0,0,0,1.4.25l15.7-.08a19.58,19.58,0,0,0,4.21-.74c2.68-1.07,4.5-5.68,2.78-8-1.18-1.58-3.49-1.91-5.36-1.32a15.06,15.06,0,0,0-5.16,3.07" transform="translate(-49.76 -90.98)"/><path class="cls-3" d="M305.26,341.46a2.57,2.57,0,0,1-1.5-.38c-.62-.5-2.18-5.23,0-8.07a5.68,5.68,0,0,1,3.67-2.17,3.36,3.36,0,0,1,1.9.34,3.74,3.74,0,0,1,1.55-1.47,4.5,4.5,0,0,1,3.37-.3,6.07,6.07,0,0,1,3.6,3.59,15.11,15.11,0,0,1,4.77-2.68c1.87-.6,4.53-.39,5.93,1.5a5,5,0,0,1,.52,4.39,6.67,6.67,0,0,1-3.51,4.38,20.05,20.05,0,0,1-4.37.77l-15.74.09Zm2.61-9.6a1.46,1.46,0,0,0-.29,0,4.61,4.61,0,0,0-3,1.77c-1.84,2.35-.47,6.27-.17,6.67a3.11,3.11,0,0,0,1,.1l15.73-.09a19.07,19.07,0,0,0,4-.71,5.66,5.66,0,0,0,2.9-3.69,4,4,0,0,0-.35-3.49c-1.1-1.48-3.25-1.62-4.78-1.13a14.48,14.48,0,0,0-5,3,.5.5,0,0,1-.48.11.53.53,0,0,1-.36-.35,5.3,5.3,0,0,0-3.19-3.64,3.44,3.44,0,0,0-2.57.24,2.55,2.55,0,0,0-1.31,1.48.52.52,0,0,1-.34.34.52.52,0,0,1-.48-.1A2.1,2.1,0,0,0,307.87,331.86Z" transform="translate(-49.76 -90.98)"/><path class="cls-3" d="M301.14,333.28a4.9,4.9,0,0,0-.53,2.81c.05.49.83.5.78,0a4.18,4.18,0,0,1,.42-2.41c.23-.45-.44-.84-.67-.4Z" transform="translate(-49.76 -90.98)"/><path class="cls-3" d="M298.87,333.91a5.4,5.4,0,0,0-.06,2.65c.1.49.85.28.75-.21a4.55,4.55,0,0,1,.06-2.23.39.39,0,0,0-.75-.21Z" transform="translate(-49.76 -90.98)"/><path class="cls-3" d="M303.24,332.33a.39.39,0,0,0,0-.78.39.39,0,0,0,0,.78Z" transform="translate(-49.76 -90.98)"/><path class="cls-3" d="M305.44,336.09v.69a.39.39,0,0,0,.78,0v-.69a.39.39,0,0,0-.78,0Z" transform="translate(-49.76 -90.98)"/><path class="cls-3" d="M318.58,337.3v.35a.39.39,0,0,0,.77,0v-.35a.39.39,0,0,0-.77,0Z" transform="translate(-49.76 -90.98)"/><path class="cls-3" d="M317.14,336.36l.17.18a.39.39,0,0,0,.55-.55l-.17-.18c-.36-.35-.91.2-.55.55Z" transform="translate(-49.76 -90.98)"/><path class="cls-1" d="M96.12,319.22H69.79a1,1,0,1,1,0-2.07H96.12a1,1,0,0,1,0,2.07Z" transform="translate(-49.76 -90.98)"/><path class="cls-4" d="M328,227.91h-.75a1.13,1.13,0,0,0-2.26,0h-.75a1.88,1.88,0,0,1,3.76,0Z" transform="translate(-49.76 -90.98)"/><path class="cls-4" d="M330.65,184.12h-.75a1.13,1.13,0,0,0-2.26,0h-.75a1.88,1.88,0,0,1,3.76,0Z" transform="translate(-49.76 -90.98)"/><path class="cls-5" d="M237,336.27H201.26l.6-1.44c2.35-5.56,2.59-10.33,2.24-15.77L204,318l30.18-.09v1a70.81,70.81,0,0,0,2.41,16Zm-32.69-2.07h29.9a78.37,78.37,0,0,1-2.09-14.26l-25.93.08A33.72,33.72,0,0,1,204.35,334.2Z" transform="translate(-49.76 -90.98)"/><path class="cls-5" d="M191,319.92c-27.17,0-49.18-.14-50.14-.49-2.33-.83-5.37-4.05-5.41-6.34-.09-4.95-.3-11.69-.55-19.5-.74-23.53-1.76-55.77-.44-73.61a6.19,6.19,0,0,1,6.14-5.76h.1l156.63.23a6.19,6.19,0,0,1,6.05,6.09c.12,5.21.29,10.54.46,15.93.72,22.6,1.46,46-1.05,68.07-.09.87-.14,1.83-.18,2.83-.21,4.63-.48,10.4-6.45,11.58C293.21,319.53,235.24,319.92,191,319.92Zm-50.39-104a4.53,4.53,0,0,0-4.49,4.22c-1.31,17.75-.29,49.93.45,73.43.25,7.81.46,14.56.55,19.52,0,1.45,2.44,4.14,4.3,4.8,3.33.68,150.59.18,154.42-.54,4.69-.93,4.9-5.55,5.1-10,0-1,.1-2,.2-2.94,2.49-22,1.75-45.29,1-67.82-.17-5.41-.34-10.73-.46-15.95a4.52,4.52,0,0,0-4.4-4.46l-156.62-.23Z" transform="translate(-49.76 -90.98)"/><path class="cls-6" d="M292.92,219.85l-147.58-.2a4.83,4.83,0,0,0-5.08,4.16c-1.65,19.75.6,61,.94,77.55,0,1.62,2.67,4,4.57,4.64,2.24.71,142.48.17,145.91-.42,6.15-1.08,5.1-7.38,5.62-11.42,2.92-22.81,1.13-47.61.55-69.92A4.78,4.78,0,0,0,292.92,219.85Z" transform="translate(-49.76 -90.98)"/><path class="cls-5" d="M249.85,342H188.44a3.81,3.81,0,0,1,0-7.62h61.41a3.81,3.81,0,0,1,0,7.62Zm-61.41-6a2.15,2.15,0,0,0,0,4.29h61.41a2.15,2.15,0,0,0,0-4.29Z" transform="translate(-49.76 -90.98)"/><path class="cls-7" d="M145.68,312h0" transform="translate(-49.76 -90.98)"/><path class="cls-5" d="M145.68,314.11c2.76,0,2.76-4.28,0-4.28s-2.76,4.28,0,4.28Z" transform="translate(-49.76 -90.98)"/><path class="cls-7" d="M154.32,312h0" transform="translate(-49.76 -90.98)"/><path class="cls-5" d="M154.32,314.11c2.76,0,2.76-4.28,0-4.28s-2.76,4.28,0,4.28Z" transform="translate(-49.76 -90.98)"/><path class="cls-7" d="M163,312h0" transform="translate(-49.76 -90.98)"/><path class="cls-5" d="M163,314.11c2.76,0,2.76-4.28,0-4.28s-2.76,4.28,0,4.28Z" transform="translate(-49.76 -90.98)"/><path class="cls-7" d="M219.14,217.57h0" transform="translate(-49.76 -90.98)"/><path class="cls-5" d="M219.14,218.57a1,1,0,0,0,0-2,1,1,0,0,0,0,2Z" transform="translate(-49.76 -90.98)"/><polygon class="cls-8" points="342.55 246.9 321.39 246.9 329.53 220.17 334.42 220.17 342.55 246.9"/><rect class="cls-8" x="319.65" y="246.9" width="24.65" height="3.05"/><polygon class="cls-5" points="323.43 240.22 321.39 246.9 342.55 246.9 340.52 240.22 323.43 240.22"/><polygon class="cls-5" points="325.46 233.54 338.48 233.54 336.45 226.85 327.5 226.85 325.46 233.54"/><path class="cls-8" d="M401,340.76h4.69V322.58h24.1v18.18h4.7V322.58h5V308.07h-4v-1.35h-6.84v1.35H407.27v-1.35h-6.84v1.35h-4.35v14.51H401Zm36.94-31.18v.06L435,321.07h-5.16l2.91-11.49Zm-13.46,11.49h-5.17l2.91-11.49h5.17Zm-10.58,0h-5.16l2.91-11.49h5.16ZM401,309.58h5.17l-2.91,11.49h-5.17Z" transform="translate(-49.76 -90.98)"/><path class="cls-8" d="M170.05,163.05l1.4-1.41a.72.72,0,0,0,0-1l-1.22-1.22a1,1,0,0,1-.17-1.16l1-2.42a1,1,0,0,1,.94-.71h1.73a.73.73,0,0,0,.73-.72v-2a.73.73,0,0,0-.73-.72H172a1,1,0,0,1-.94-.71l-1-2.42a1,1,0,0,1,.17-1.16l1.22-1.22a.72.72,0,0,0,0-1l-1.4-1.41a.73.73,0,0,0-1,0l-1.22,1.22a1,1,0,0,1-1.16.17l-2.42-1a1,1,0,0,1-.7-.94v-1.73a.73.73,0,0,0-.73-.73h-2a.73.73,0,0,0-.73.73v1.73a1,1,0,0,1-.7.94l-2.43,1a1,1,0,0,1-1.16-.17l-1.22-1.22a.72.72,0,0,0-1,0l-1.41,1.41a.72.72,0,0,0,0,1l1.22,1.22a1,1,0,0,1,.17,1.16l-1,2.42a1,1,0,0,1-.94.71h-1.73a.73.73,0,0,0-.73.72v2a.73.73,0,0,0,.73.72h1.73a1,1,0,0,1,.94.71l1,2.42a1,1,0,0,1-.17,1.16l-1.22,1.22a.72.72,0,0,0,0,1l1.41,1.41a.72.72,0,0,0,1,0l1.22-1.22a1,1,0,0,1,1.16-.17l2.43,1a1,1,0,0,1,.7.94v1.73a.73.73,0,0,0,.73.73h2a.73.73,0,0,0,.73-.73V163.6a1,1,0,0,1,.7-.94l2.42-1a1,1,0,0,1,1.16.17l1.22,1.22A.73.73,0,0,0,170.05,163.05Zm-8.27-3.85a5.82,5.82,0,1,1,5.82-5.82A5.83,5.83,0,0,1,161.78,159.2Z" transform="translate(-49.76 -90.98)"/><path class="cls-8" d="M183.5,168.55l-.35-1.18a.45.45,0,0,0-.57-.3l-1,.31a.66.66,0,0,1-.69-.25l-1-1.26a.66.66,0,0,1-.11-.71l.51-.95a.45.45,0,0,0-.18-.61L179,163a.45.45,0,0,0-.61.19l-.51,1a.66.66,0,0,1-.66.3l-1.61-.16a.65.65,0,0,1-.59-.43l-.31-1a.45.45,0,0,0-.56-.3l-1.18.36a.44.44,0,0,0-.3.56l.31,1a.64.64,0,0,1-.25.68l-1.26,1a.63.63,0,0,1-.71.11l-.95-.51a.45.45,0,0,0-.61.19l-.59,1.08a.47.47,0,0,0,.19.62l.95.51a.63.63,0,0,1,.3.65l-.16,1.62a.64.64,0,0,1-.43.58l-1,.31a.46.46,0,0,0-.3.57l.36,1.18a.45.45,0,0,0,.56.3l1-.31a.64.64,0,0,1,.68.25l1,1.25a.64.64,0,0,1,.11.72l-.51.95a.45.45,0,0,0,.19.61l1.08.58a.47.47,0,0,0,.62-.18l.5-1a.66.66,0,0,1,.66-.31l1.61.16a.63.63,0,0,1,.59.44l.31,1a.44.44,0,0,0,.56.3l1.19-.35a.47.47,0,0,0,.3-.57l-.31-1a.63.63,0,0,1,.24-.68l1.26-1a.68.68,0,0,1,.72-.11l.94.51a.46.46,0,0,0,.62-.18l.58-1.09a.45.45,0,0,0-.19-.61l-.94-.51a.64.64,0,0,1-.31-.65l.16-1.62a.66.66,0,0,1,.43-.59l1-.31A.45.45,0,0,0,183.5,168.55ZM179,171.93a3.61,3.61,0,1,1-1.47-4.88A3.6,3.6,0,0,1,179,171.93Z" transform="translate(-49.76 -90.98)"/><path class="cls-1" d="M242.39,191.33h-32.6a1,1,0,1,1,0-2.07h32.6a1,1,0,1,1,0,2.07Z" transform="translate(-49.76 -90.98)"/><path class="cls-1" d="M176,206.14H123.36a1,1,0,0,1,0-2.08H176a1,1,0,0,1,0,2.08Z" transform="translate(-49.76 -90.98)"/><path class="cls-1" d="M428.5,234.18H375.84a1,1,0,1,1,0-2.08H428.5a1,1,0,1,1,0,2.08Z" transform="translate(-49.76 -90.98)"/><path class="cls-1" d="M449.2,343H50.8a1,1,0,1,1,0-2.08H449.2a1,1,0,1,1,0,2.08Z" transform="translate(-49.76 -90.98)"/><path class="cls-8" d="M303.06,178.3a8.37,8.37,0,0,0-7.21,12.6l.13.23-8.46,8.47a1.4,1.4,0,0,0-.42,1,1.81,1.81,0,0,0,.64,1.29,2,2,0,0,0,1.41.69,1.7,1.7,0,0,0,1-.34l8.45-8.45.23.13a8.37,8.37,0,1,0,4.23-15.58Zm0,14.25a5.88,5.88,0,1,1,0-11.76h0a5.88,5.88,0,0,1,0,11.76Z" transform="translate(-49.76 -90.98)"/><path class="cls-8" d="M300,187.89H306v-1.55H300Z" transform="translate(-49.76 -90.98)"/><path class="cls-1" d="M147.75,341.07a1,1,0,0,1-1-1V260.16a1,1,0,1,1,2.08,0V340A1,1,0,0,1,147.75,341.07Z" transform="translate(-49.76 -90.98)"/><path class="cls-1" d="M166.31,341.07a1,1,0,0,1-1-1V260.16a1,1,0,1,1,2.08,0V340A1,1,0,0,1,166.31,341.07Z" transform="translate(-49.76 -90.98)"/><path class="cls-1" d="M166.31,266.65H147.75a1,1,0,1,1,0-2.07h18.56a1,1,0,1,1,0,2.07Z" transform="translate(-49.76 -90.98)"/><path class="cls-1" d="M166.31,275.78H147.75a1,1,0,0,1,0-2.08h18.56a1,1,0,0,1,0,2.08Z" transform="translate(-49.76 -90.98)"/><path class="cls-1" d="M166.31,284.9H147.75a1,1,0,1,1,0-2.07h18.56a1,1,0,1,1,0,2.07Z" transform="translate(-49.76 -90.98)"/><path class="cls-1" d="M166.31,294H147.75a1,1,0,0,1,0-2.08h18.56a1,1,0,0,1,0,2.08Z" transform="translate(-49.76 -90.98)"/><path class="cls-1" d="M166.31,303.15H147.75a1,1,0,1,1,0-2.07h18.56a1,1,0,1,1,0,2.07Z" transform="translate(-49.76 -90.98)"/><path class="cls-1" d="M166.31,312.28H147.75a1,1,0,0,1,0-2.08h18.56a1,1,0,0,1,0,2.08Z" transform="translate(-49.76 -90.98)"/><path class="cls-1" d="M166.31,321.4H147.75a1,1,0,1,1,0-2.07h18.56a1,1,0,1,1,0,2.07Z" transform="translate(-49.76 -90.98)"/><path class="cls-1" d="M166.31,330.53H147.75a1,1,0,0,1,0-2.08h18.56a1,1,0,0,1,0,2.08Z" transform="translate(-49.76 -90.98)"/><path class="cls-1" d="M122.47,264a1,1,0,0,1-1-1v-4a1,1,0,1,1,2.08,0v4A1,1,0,0,1,122.47,264Z" transform="translate(-49.76 -90.98)"/><path class="cls-1" d="M124.49,262h-4a1,1,0,1,1,0-2.07h4a1,1,0,1,1,0,2.07Z" transform="translate(-49.76 -90.98)"/><path class="cls-1" d="M215.74,119.6a1,1,0,0,1-1-1v-4a1,1,0,1,1,2.07,0v4A1,1,0,0,1,215.74,119.6Z" transform="translate(-49.76 -90.98)"/><path class="cls-1" d="M217.76,117.58h-4a1,1,0,0,1,0-2.08h4a1,1,0,0,1,0,2.08Z" transform="translate(-49.76 -90.98)"/><path class="cls-1" d="M248.43,328.66a1,1,0,0,1-.29,0l-3.88-1.11a1,1,0,0,1-.71-1.28,1,1,0,0,1,1.28-.71l3.88,1.11a1,1,0,0,1-.28,2Z" transform="translate(-49.76 -90.98)"/><path class="cls-1" d="M245.93,330.05a.9.9,0,0,1-.28,0,1,1,0,0,1-.71-1.28l1.11-3.89a1,1,0,0,1,2,.57l-1.11,3.89A1,1,0,0,1,245.93,330.05Z" transform="translate(-49.76 -90.98)"/><path class="cls-1" d="M228,206.69a.9.9,0,0,1-.28,0l-3.89-1.11a1,1,0,0,1,.57-2l3.88,1.11a1,1,0,0,1-.28,2Z" transform="translate(-49.76 -90.98)"/><path class="cls-1" d="M225.53,208.08a1,1,0,0,1-.28,0,1,1,0,0,1-.71-1.28l1.11-3.88a1,1,0,1,1,2,.57l-1.11,3.88A1,1,0,0,1,225.53,208.08Z" transform="translate(-49.76 -90.98)"/><circle class="cls-8" cx="225.31" cy="168.47" r="14.41" transform="translate(-102.9 117.69) rotate(-45)"/><circle class="cls-4" cx="175.55" cy="77.5" r="10.79"/><path class="cls-1" d="M225.31,179.68a11.21,11.21,0,1,1,11.21-11.21A11.22,11.22,0,0,1,225.31,179.68Zm0-21.58a10.38,10.38,0,1,0,10.38,10.37A10.38,10.38,0,0,0,225.31,158.1Z" transform="translate(-49.76 -90.98)"/><path class="cls-1" d="M225.31,168.89a.42.42,0,0,1-.42-.42V163a.42.42,0,0,1,.84,0v5.49A.42.42,0,0,1,225.31,168.89Z" transform="translate(-49.76 -90.98)"/><path class="cls-1" d="M231.75,168.89h-6.44a.42.42,0,0,1-.42-.42.41.41,0,0,1,.42-.41h6.44a.41.41,0,0,1,.42.41A.42.42,0,0,1,231.75,168.89Z" transform="translate(-49.76 -90.98)"/><path class="cls-1" d="M225.74,158.9a.43.43,0,1,1-.43-.43A.43.43,0,0,1,225.74,158.9Z" transform="translate(-49.76 -90.98)"/><circle class="cls-1" cx="182.32" cy="70.73" r="0.43"/><path class="cls-1" d="M234.88,168.9a.43.43,0,1,1,.43-.43A.42.42,0,0,1,234.88,168.9Z" transform="translate(-49.76 -90.98)"/><circle class="cls-1" cx="182.32" cy="84.27" r="0.43"/><path class="cls-1" d="M224.88,178.05a.43.43,0,1,1,.43.42A.43.43,0,0,1,224.88,178.05Z" transform="translate(-49.76 -90.98)"/><path class="cls-1" d="M218.24,174.94a.43.43,0,0,1,.6,0,.42.42,0,1,1-.6,0Z" transform="translate(-49.76 -90.98)"/><circle class="cls-1" cx="165.97" cy="77.5" r="0.43"/><path class="cls-1" d="M218.84,161.4a.43.43,0,0,1,0,.61.43.43,0,0,1-.6,0,.43.43,0,0,1,0-.61A.43.43,0,0,1,218.84,161.4Z" transform="translate(-49.76 -90.98)"/><path class="cls-1" d="M246.39,163h-6a.42.42,0,1,1,0-.83h6a.42.42,0,0,1,0,.83Z" transform="translate(-49.76 -90.98)"/><path class="cls-1" d="M246.39,174.81h-6a.42.42,0,0,1-.42-.42.41.41,0,0,1,.42-.41h6a.41.41,0,0,1,.41.41A.41.41,0,0,1,246.39,174.81Z" transform="translate(-49.76 -90.98)"/><path class="cls-1" d="M253.91,168.89h-11.3a.42.42,0,1,1,0-.83h11.3a.42.42,0,0,1,0,.83Z" transform="translate(-49.76 -90.98)"/><rect class="cls-4" x="217.17" y="233.54" width="6.68" height="6.68"/><path class="cls-5" d="M274.14,331.72h-7.72V324h7.72Zm-6.68-1h5.64V325h-5.64Z" transform="translate(-49.76 -90.98)"/><path class="cls-1" d="M282.08,326H276a.41.41,0,0,1-.42-.41.42.42,0,0,1,.42-.42h6.05a.42.42,0,0,1,.42.42A.41.41,0,0,1,282.08,326Z" transform="translate(-49.76 -90.98)"/><path class="cls-1" d="M284.35,330.56h-8.17c-.32,0-.57-.18-.57-.41s.25-.42.57-.42h8.17c.31,0,.57.18.57.42S284.66,330.56,284.35,330.56Z" transform="translate(-49.76 -90.98)"/><path class="cls-1" d="M287.33,328.14H276a.41.41,0,0,1-.42-.41.42.42,0,0,1,.42-.42h11.3a.42.42,0,0,1,.42.42A.41.41,0,0,1,287.33,328.14Z" transform="translate(-49.76 -90.98)"/><rect class="cls-4" x="120.21" y="226.46" width="6.68" height="6.68" transform="translate(197.35 368.62) rotate(180)"/><path class="cls-5" d="M127.42,233.66H119.7v-7.72h7.72Zm-6.69-1h5.65V227h-5.65Z" transform="translate(-49.76 -90.98)"/><path class="cls-1" d="M111.76,227.93h6a.42.42,0,0,0,0-.84h-6a.42.42,0,0,0,0,.84Z" transform="translate(-49.76 -90.98)"/><path class="cls-1" d="M109.48,232.51h8.18c.31,0,.56-.19.56-.42s-.25-.42-.56-.42h-8.18c-.31,0-.56.19-.56.42S109.17,232.51,109.48,232.51Z" transform="translate(-49.76 -90.98)"/><path class="cls-1" d="M106.51,230.09h11.3a.42.42,0,0,0,0-.84h-11.3a.42.42,0,0,0,0,.84Z" transform="translate(-49.76 -90.98)"/><rect class="cls-9" x="274.24" y="160.59" width="2.07" height="89.19"/><rect class="cls-8" x="268.9" y="150.83" width="12.76" height="20.55" rx="6.15"/><path class="cls-9" d="M333.4,256.39l2.18.35c.49.08.7-.67.21-.75l-2.19-.35c-.49-.08-.7.67-.2.75Z" transform="translate(-49.76 -90.98)"/><path class="cls-9" d="M333.32,251.64a6.19,6.19,0,0,1,1.72-.06c.5,0,.49-.73,0-.78a7.36,7.36,0,0,0-1.93.09c-.49.09-.28.84.21.75Z" transform="translate(-49.76 -90.98)"/><path class="cls-9" d="M333.08,247.31l1.68-.67c.46-.18.26-.93-.21-.75l-1.67.67c-.46.18-.26.93.2.75Z" transform="translate(-49.76 -90.98)"/><path class="cls-9" d="M314,257.12a9.56,9.56,0,0,0,1.68-.4c.47-.17.27-.92-.21-.75a9.66,9.66,0,0,1-1.67.4c-.5.06-.29.81.2.75Z" transform="translate(-49.76 -90.98)"/><path class="cls-9" d="M313,251.59a8.35,8.35,0,0,1,2.11.32.39.39,0,0,0,.21-.75,9.58,9.58,0,0,0-2.32-.35.39.39,0,0,0,0,.78Z" transform="translate(-49.76 -90.98)"/><path class="cls-9" d="M313.68,245.19l1.68.53c.48.16.68-.59.21-.75l-1.68-.53c-.48-.15-.68.6-.21.75Z" transform="translate(-49.76 -90.98)"/><polygon class="cls-1" points="270.44 250.99 271.82 239.07 278.56 239.07 280.12 250.82 270.44 250.99"/><path class="cls-2" d="M129.87,284.89c-.31-1.89-1.65-6.78-4.6-5.23-4.78,2.5,1,12-4.78,13.69-.31-3.79-1.12-6.4-2.83-6.25-3.54.32-2.6,8.54-2.65,10.39s-.15,3.73-.24,5.63c-4.15.75-3.33-10.09-5.86-11.59-3.93-2.33-4.76,2.86-4.65,5.26.18,4.09,1.28,9,5.11,11.14a10.44,10.44,0,0,0,5.23,1.37,54.33,54.33,0,0,0,.66,9.61,0,0,0,0,0,.07,0h0l2.33.13v0a.8.8,0,0,0,1.59,0c0-2,1.24-11.64,1.38-19.84a8.36,8.36,0,0,0,5.54-1.57C130.13,294.75,130.6,289.4,129.87,284.89Z" transform="translate(-49.76 -90.98)"/><path class="cls-3" d="M118.44,320.28a1.29,1.29,0,0,1-.67-.18,1.13,1.13,0,0,1-.51-.65l-1.71-.09-.63,0-.09-.39a53.36,53.36,0,0,1-.67-9.23,11.27,11.27,0,0,1-5-1.45c-4.09-2.31-5.17-7.53-5.34-11.5-.08-1.59.26-4.9,2.05-6a3.08,3.08,0,0,1,3.27.31c1.22.73,1.68,3,2.22,5.53.73,3.49,1.39,6,3,6l0-.86c.06-1.48.13-2.95.17-4.39,0-.28,0-.71,0-1.24-.11-3.24-.32-9.26,3.08-9.57a1.85,1.85,0,0,1,1.41.46c1,.8,1.56,2.64,1.85,5.62,2.15-.95,2-3.44,1.91-6.29s-.26-5.86,2.27-7.18a2.46,2.46,0,0,1,2.33-.11c2.11,1.06,2.84,5.2,2.91,5.66h0c.56,3.46.8,9.77-3.87,13.2a9.18,9.18,0,0,1-5.37,1.7c-.12,5.35-.67,11.25-1,15.18-.19,2-.33,3.54-.34,4.18a1.18,1.18,0,0,1-.61,1A1.32,1.32,0,0,1,118.44,320.28Zm-2.8-1.8,2.47.13V319c0,.21.07.27.12.3a.44.44,0,0,0,.43,0,.31.31,0,0,0,.16-.28c0-.68.15-2.18.34-4.25.37-4,.94-10.15,1-15.6v-.5l.5.08a8.07,8.07,0,0,0,5.2-1.49c4.3-3.15,4.06-9.09,3.53-12.34h0c-.23-1.43-1-4.32-2.43-5a1.59,1.59,0,0,0-1.53.1c-2,1.07-1.92,3.64-1.8,6.36.13,3,.28,6.39-3.06,7.37l-.51.15,0-.54c-.31-3.78-1-5.13-1.58-5.6a1.06,1.06,0,0,0-.77-.25c-2.57.24-2.37,5.92-2.28,8.66,0,.55,0,1,0,1.3,0,1.44-.11,2.91-.18,4.4l-.07,1.6-.35.06c-2.84.51-3.64-3.32-4.35-6.7-.46-2.18-.93-4.42-1.81-4.95a2.28,2.28,0,0,0-2.37-.31c-1.32.79-1.69,3.59-1.62,5.17.17,3.75,1.15,8.66,4.89,10.77a10,10,0,0,0,5,1.33l.49-.05v.49A54.18,54.18,0,0,0,115.64,318.48Z" transform="translate(-49.76 -90.98)"/><path class="cls-5" d="M125.29,341H108.41a1.78,1.78,0,0,1-1.79-1.46l-3.83-19.68,1.59-.31,3.83,19.68a.18.18,0,0,0,.2.15h16.88a.18.18,0,0,0,.2-.15l3.81-19.68,1.59.31-3.8,19.68A1.78,1.78,0,0,1,125.29,341Z" transform="translate(-49.76 -90.98)"/><path class="cls-8" d="M103,313.48h28c.48,0,.87.52.87,1.17v4.26c0,.65-.39,1.18-.87,1.18H103c-.48,0-.87-.53-.87-1.18v-4.26C102.09,314,102.48,313.48,103,313.48Z" transform="translate(-49.76 -90.98)"/><path class="cls-1" d="M131,320.53H103a1.5,1.5,0,0,1-1.31-1.62v-4.26A1.49,1.49,0,0,1,103,313h28a1.48,1.48,0,0,1,1.31,1.61v4.26A1.49,1.49,0,0,1,131,320.53Zm-28-6.61c-.2,0-.43.31-.43.73v4.26c0,.42.23.73.43.73h28c.21,0,.43-.31.43-.73v-4.26c0-.42-.22-.73-.43-.73Z" transform="translate(-49.76 -90.98)"/><path class="cls-8" d="M131,320.45H103a1.42,1.42,0,0,1-1.24-1.54v-4.26a1.42,1.42,0,0,1,1.24-1.54h28a1.41,1.41,0,0,1,1.24,1.54v4.26A1.41,1.41,0,0,1,131,320.45Zm-28-6.6c-.24,0-.5.33-.5.8v4.26c0,.48.26.81.5.81h28c.24,0,.5-.33.5-.81v-4.26c0-.47-.26-.8-.5-.8Z" transform="translate(-49.76 -90.98)"/><path class="cls-1" d="M131,320.9H103a1.85,1.85,0,0,1-1.68-2v-4.26a1.85,1.85,0,0,1,1.68-2h28a1.85,1.85,0,0,1,1.68,2v4.26A1.85,1.85,0,0,1,131,320.9Zm-28-6.61a.55.55,0,0,0-.11.36v4.26a.47.47,0,0,0,.13.38H131s.06-.14.06-.37v-4.26a.52.52,0,0,0-.12-.38Z" transform="translate(-49.76 -90.98)"/><path class="cls-3" d="M106,296.75l1.38.17c.49.07.49-.71,0-.77L106,296c-.5-.06-.49.72,0,.78Z" transform="translate(-49.76 -90.98)"/><path class="cls-3" d="M108.05,290.63v.69a.39.39,0,0,0,.78,0v-.69a.39.39,0,0,0-.78,0Z" transform="translate(-49.76 -90.98)"/><path class="cls-3" d="M110.74,297.76l1-.56a.39.39,0,0,0-.39-.67l-1,.56a.39.39,0,0,0,.39.67Z" transform="translate(-49.76 -90.98)"/><path class="cls-3" d="M106.75,306.71l1.21-.85c.41-.28,0-1-.39-.67l-1.22.85c-.4.29,0,1,.4.67Z" transform="translate(-49.76 -90.98)"/><path class="cls-3" d="M103.83,300l.87.34c.46.19.66-.57.2-.75l-.86-.34c-.47-.18-.67.57-.21.75Z" transform="translate(-49.76 -90.98)"/><path class="cls-3" d="M109.48,303.64a.57.57,0,0,1,.41.23c.31.39.86-.16.55-.55a1.32,1.32,0,0,0-1-.46c-.5,0-.5.74,0,.78Z" transform="translate(-49.76 -90.98)"/><path class="cls-3" d="M111.18,307.3a2.7,2.7,0,0,0,.19,1.51c.2.46.87.06.67-.39a1.7,1.7,0,0,1-.11-.92c.08-.49-.67-.7-.75-.2Z" transform="translate(-49.76 -90.98)"/><path class="cls-3" d="M115.25,307.44l.68.18a.39.39,0,0,0,.21-.75l-.69-.18a.39.39,0,0,0-.2.75Z" transform="translate(-49.76 -90.98)"/><path class="cls-3" d="M117.73,299.79a1.31,1.31,0,0,0,.46,1.13c.38.32.94-.22.55-.55a.58.58,0,0,1-.23-.58c0-.5-.74-.49-.78,0Z" transform="translate(-49.76 -90.98)"/><path class="cls-3" d="M116.74,294.23a1.26,1.26,0,0,0-.2,1c.09.49.84.28.75-.21a.44.44,0,0,1,.12-.39c.3-.41-.37-.8-.67-.4Z" transform="translate(-49.76 -90.98)"/><path class="cls-3" d="M121,296.51v.69a.39.39,0,0,0,.78,0v-.69a.39.39,0,0,0-.78,0Z" transform="translate(-49.76 -90.98)"/><path class="cls-3" d="M113.77,295.29l.52.34c.42.28.81-.39.39-.67l-.51-.34c-.42-.28-.81.39-.4.67Z" transform="translate(-49.76 -90.98)"/><path class="cls-3" d="M115.07,288.83a1,1,0,0,1,.25.59c0,.5.81.5.78,0a1.86,1.86,0,0,0-.48-1.14c-.32-.38-.87.18-.55.55Z" transform="translate(-49.76 -90.98)"/><path class="cls-3" d="M117,286.48v1a.39.39,0,0,0,.78,0v-1a.39.39,0,0,0-.78,0Z" transform="translate(-49.76 -90.98)"/><path class="cls-3" d="M121.85,291.05l.33.36c.35.36.9-.19.55-.55l-.33-.36c-.35-.36-.9.19-.55.55Z" transform="translate(-49.76 -90.98)"/><path class="cls-3" d="M122.62,286.42l1,.06c.5,0,.5-.75,0-.78l-1-.06c-.5,0-.5.75,0,.78Z" transform="translate(-49.76 -90.98)"/><path class="cls-3" d="M123.72,280.19l.69.69a.39.39,0,0,0,.55-.55l-.69-.69a.39.39,0,0,0-.55.55Z" transform="translate(-49.76 -90.98)"/><path class="cls-3" d="M126.72,278.19v1.21a.39.39,0,0,0,.78,0v-1.21a.39.39,0,0,0-.78,0Z" transform="translate(-49.76 -90.98)"/><path class="cls-3" d="M128.13,285.46l.34-.52c.28-.41-.4-.8-.67-.39l-.34.52c-.28.42.39.81.67.39Z" transform="translate(-49.76 -90.98)"/><path class="cls-3" d="M125.49,293.1l.87-.33c.46-.18.26-.94-.21-.75l-.87.33c-.46.18-.26.93.21.75Z" transform="translate(-49.76 -90.98)"/><path class="cls-3" d="M128.93,292l.87-.18c.49-.1.28-.85-.21-.75l-.86.18c-.49.1-.29.85.2.75Z" transform="translate(-49.76 -90.98)"/><path class="cls-3" d="M126.72,295.64v.18a.39.39,0,0,0,.78,0v-.18a.39.39,0,0,0-.78,0Z" transform="translate(-49.76 -90.98)"/><path class="cls-3" d="M120,307.55l.52-.34c.41-.28,0-.95-.4-.67l-.51.34c-.42.28,0,.95.39.67Z" transform="translate(-49.76 -90.98)"/><path class="cls-3" d="M119.58,310.42a2.2,2.2,0,0,1,1.06-.57c.49-.11.28-.86-.2-.75a3.11,3.11,0,0,0-1.41.77c-.36.35.19.9.55.55Z" transform="translate(-49.76 -90.98)"/><path class="cls-3" d="M116.38,310.89l.18.34c.22.45.89,0,.67-.39l-.18-.35c-.23-.44-.9-.05-.67.4Z" transform="translate(-49.76 -90.98)"/><path class="cls-3" d="M113.42,311.72a1.89,1.89,0,0,0,1.34.19c.49-.1.28-.85-.2-.75a1,1,0,0,1-.75-.11c-.44-.23-.84.44-.39.67Z" transform="translate(-49.76 -90.98)"/><path class="cls-3" d="M119.85,304.35l1.55-.2c.49-.06.5-.84,0-.78l-1.55.2c-.49.06-.5.84,0,.78Z" transform="translate(-49.76 -90.98)"/><path class="cls-10" d="M189.51,270.26l25.11-22.7c1.24-1.12-.59-2.95-1.83-1.84l-25.11,22.71c-1.24,1.12.59,2.95,1.83,1.83Z" transform="translate(-49.76 -90.98)"/><path class="cls-10" d="M217.89,281.84,243,259.14c1.24-1.12-.6-2.95-1.84-1.84L216.06,280c-1.24,1.12.6,2.95,1.83,1.83Z" transform="translate(-49.76 -90.98)"/><path class="cls-10" d="M187.05,290.42l52.64-51.33c1.2-1.16-.64-3-1.83-1.83l-52.64,51.33c-1.2,1.16.64,3,1.83,1.83Z" transform="translate(-49.76 -90.98)"/><rect class="cls-5" x="216.61" y="39.84" width="1.13" height="72.44"/><path class="cls-5" d="M271.54,203.25a4.6,4.6,0,1,1-4.6-4.6A4.6,4.6,0,0,1,271.54,203.25Z" transform="translate(-49.76 -90.98)"/><path class="cls-5" d="M267,218.68a4.13,4.13,0,0,1-2.67-1.11,4.08,4.08,0,0,1-1.1-3,.61.61,0,0,1,.61-.61.61.61,0,0,1,.61.61,2.94,2.94,0,0,0,.74,2.15,2.9,2.9,0,0,0,1.81.75,3.11,3.11,0,1,0,0-6.22.6.6,0,0,1-.6-.61v-3.38a.61.61,0,1,1,1.21,0v2.81a4.33,4.33,0,0,1-.61,8.62Z" transform="translate(-49.76 -90.98)"/><path class="cls-5" d="M242.86,221.51a.57.57,0,0,1-.47-.47.57.57,0,0,1,.48-.64l24.89-3.67a.56.56,0,1,1,.16,1.11L243,221.51A.48.48,0,0,1,242.86,221.51Z" transform="translate(-49.76 -90.98)"/><path class="cls-5" d="M290.63,229.79l-.16,0-22.89-12a.57.57,0,0,1-.24-.76.56.56,0,0,1,.76-.24l22.89,12a.56.56,0,0,1,.24.76A.57.57,0,0,1,290.63,229.79Z" transform="translate(-49.76 -90.98)"/><rect class="cls-4" x="225.54" y="225.26" width="73.61" height="47.36" rx="5.87" transform="translate(-3.27 -132.21) rotate(9.86)"/><path class="cls-5" d="M289.6,278.4a6.72,6.72,0,0,1-1.18-.1l-60.53-10.52a6.86,6.86,0,0,1-5.59-7.94l6-34.66a6.87,6.87,0,0,1,7.94-5.59l60.52,10.52a6.86,6.86,0,0,1,5.59,7.93l-6,34.67A6.87,6.87,0,0,1,289.6,278.4ZM235.09,221a5.32,5.32,0,0,0-5.23,4.4l-6,34.67a5.28,5.28,0,0,0,4.32,6.14l60.52,10.52a5.32,5.32,0,0,0,6.14-4.32l6-34.67a5.3,5.3,0,0,0-4.32-6.14L236,221.12A5.69,5.69,0,0,0,235.09,221Z" transform="translate(-49.76 -90.98)"/><rect class="cls-8" x="228.76" y="228.93" width="67.17" height="40.03" rx="3.75" transform="translate(-3.27 -132.21) rotate(9.86)"/><path class="cls-1" d="M288.85,274.58a4.43,4.43,0,0,1-.81-.07l-58.51-10.16a4.7,4.7,0,0,1-3-1.91,4.61,4.61,0,0,1-.78-3.49l5.52-31.78a4.66,4.66,0,0,1,5.4-3.79l58.51,10.16a4.68,4.68,0,0,1,3.8,5.4l-5.53,31.77a4.66,4.66,0,0,1-4.58,3.87Zm-.55-1.6a3.11,3.11,0,0,0,2.33-.52,3.07,3.07,0,0,0,1.27-2l5.52-31.78a3.11,3.11,0,0,0-2.53-3.6l-58.51-10.16a3.12,3.12,0,0,0-3.6,2.53l-5.52,31.78a3.1,3.1,0,0,0,2.53,3.59Z" transform="translate(-49.76 -90.98)"/><polygon class="cls-4" points="210.66 177.95 225.87 164.01 234.29 182.05 210.66 177.95"/><path class="cls-5" d="M284.94,273.71l-25.65-4.45,16.51-15.14Zm-23.39-5.11,21.61,3.75-7.7-16.51Z" transform="translate(-49.76 -90.98)"/><polygon class="cls-4" points="180.58 172.72 207.55 148 222.47 180 180.58 172.72"/><path class="cls-5" d="M273.13,271.66,229.21,264l28.27-25.91Zm-41.66-8.29,39.88,6.93-14.21-30.46Z" transform="translate(-49.76 -90.98)"/><path class="cls-4" d="M289.38,243.67a3.77,3.77,0,1,1-3.07-4.36A3.77,3.77,0,0,1,289.38,243.67Z" transform="translate(-49.76 -90.98)"/><path class="cls-5" d="M285.67,247.31a4.52,4.52,0,0,1-.74-.06,4.29,4.29,0,0,1-3.49-5,4.21,4.21,0,0,1,1.75-2.77,4.3,4.3,0,0,1,6,1,4.31,4.31,0,0,1,.72,3.21,4.26,4.26,0,0,1-1.76,2.77A4.2,4.2,0,0,1,285.67,247.31Zm0-7.54A3.26,3.26,0,0,0,283,244.9a3.26,3.26,0,0,0,5.87-1.32h0a3.26,3.26,0,0,0-2.65-3.76A3.66,3.66,0,0,0,285.65,239.77Z" transform="translate(-49.76 -90.98)"/><rect class="cls-8" x="207.28" y="37.4" width="56.53" height="6.22"/><path class="cls-5" d="M362.69,257H343.93V91.06h18.76Zm-16.91-1.86h15.06V92.92H345.78Z" transform="translate(-49.76 -90.98)"/><path class="cls-5" d="M362.46,109.27h-18.3V91h18.3ZM346,107.39h14.54V92.86H346Z" transform="translate(-49.76 -90.98)"/><rect class="cls-5" x="352.37" y="88.52" width="1.88" height="23.21" transform="translate(-17.08 188.18) rotate(-45)"/><rect class="cls-5" x="341.7" y="99.18" width="23.21" height="1.88" transform="translate(-17.08 188.18) rotate(-45)"/><path class="cls-5" d="M362.46,125.69h-18.3v-18.3h18.3ZM346,123.81h14.54V109.27H346Z" transform="translate(-49.76 -90.98)"/><rect class="cls-5" x="352.37" y="104.93" width="1.88" height="23.21" transform="translate(-28.69 192.98) rotate(-45)"/><rect class="cls-5" x="341.7" y="115.6" width="23.21" height="1.88" transform="translate(-28.69 192.98) rotate(-45)"/><path class="cls-5" d="M362.46,142.1h-18.3V123.81h18.3ZM346,140.22h14.54V125.69H346Z" transform="translate(-49.76 -90.98)"/><rect class="cls-5" x="352.37" y="121.35" width="1.88" height="23.21" transform="translate(-40.3 197.79) rotate(-45)"/><rect class="cls-5" x="341.7" y="132.01" width="23.21" height="1.88" transform="translate(-40.29 197.8) rotate(-45)"/><path class="cls-5" d="M362.46,158.52h-18.3v-18.3h18.3ZM346,156.64h14.54V142.1H346Z" transform="translate(-49.76 -90.98)"/><rect class="cls-5" x="352.37" y="137.76" width="1.88" height="23.21" transform="translate(-51.9 202.6) rotate(-45)"/><rect class="cls-5" x="341.7" y="148.43" width="23.21" height="1.88" transform="translate(-51.9 202.6) rotate(-45)"/><path class="cls-5" d="M362.46,174.93h-18.3V156.64h18.3ZM346,173.05h14.54V158.52H346Z" transform="translate(-49.76 -90.98)"/><rect class="cls-5" x="352.37" y="154.18" width="1.88" height="23.21" transform="translate(-63.51 207.41) rotate(-45)"/><rect class="cls-5" x="341.7" y="164.84" width="23.21" height="1.88" transform="translate(-63.5 207.42) rotate(-45)"/><path class="cls-5" d="M362.46,191.34h-18.3V173.05h18.3ZM346,189.46h14.54V174.93H346Z" transform="translate(-49.76 -90.98)"/><rect class="cls-5" x="352.37" y="170.59" width="1.88" height="23.21" transform="translate(-75.12 212.21) rotate(-45)"/><rect class="cls-5" x="341.7" y="181.26" width="23.21" height="1.88" transform="translate(-75.11 212.23) rotate(-45)"/><path class="cls-5" d="M362.46,207.76h-18.3v-18.3h18.3ZM346,205.88h14.54V191.34H346Z" transform="translate(-49.76 -90.98)"/><rect class="cls-5" x="352.37" y="187" width="1.88" height="23.21" transform="translate(-86.72 217.02) rotate(-45)"/><rect class="cls-5" x="341.7" y="197.67" width="23.21" height="1.88" transform="translate(-86.72 217.04) rotate(-45)"/><path class="cls-5" d="M362.46,224.17h-18.3V205.88h18.3ZM346,222.29h14.54V207.76H346Z" transform="translate(-49.76 -90.98)"/><rect class="cls-5" x="352.37" y="203.42" width="1.88" height="23.21" transform="translate(-98.33 221.83) rotate(-45)"/><rect class="cls-5" x="341.7" y="214.08" width="23.21" height="1.88" transform="translate(-98.32 221.84) rotate(-45)"/><path class="cls-5" d="M362.46,240.59h-18.3v-18.3h18.3ZM346,238.71h14.54V224.17H346Z" transform="translate(-49.76 -90.98)"/><rect class="cls-5" x="352.37" y="219.83" width="1.88" height="23.21" transform="translate(-109.93 226.64) rotate(-45)"/><rect class="cls-5" x="341.7" y="230.5" width="23.21" height="1.88" transform="translate(-109.93 226.65) rotate(-45)"/><path class="cls-5" d="M362.46,257h-18.3V238.71h18.3ZM346,255.12h14.54V240.59H346Z" transform="translate(-49.76 -90.98)"/><rect class="cls-5" x="352.37" y="236.25" width="1.88" height="23.21" transform="translate(-121.54 231.44) rotate(-45)"/><rect class="cls-5" x="341.7" y="246.91" width="23.21" height="1.88" transform="translate(-121.55 231.36) rotate(-44.99)"/><path class="cls-5" d="M395.12,125.44h-18.3v-18.3h18.3Zm-16.42-1.88h14.54V109H378.7Z" transform="translate(-49.76 -90.98)"/><rect class="cls-5" x="374.36" y="115.35" width="23.21" height="1.88" transform="translate(-18.91 216.07) rotate(-45.01)"/><rect class="cls-5" x="385.03" y="104.69" width="1.88" height="23.21" transform="translate(-18.95 216.01) rotate(-45)"/><path class="cls-5" d="M378.7,125.44H360.41v-18.3H378.7Zm-16.41-1.88h14.53V109H362.29Z" transform="translate(-49.76 -90.98)"/><rect class="cls-5" x="357.95" y="115.35" width="23.21" height="1.88" transform="translate(-23.72 204.46) rotate(-45.01)"/><rect class="cls-5" x="368.62" y="104.69" width="1.88" height="23.21" transform="translate(-23.76 204.4) rotate(-45)"/><path class="cls-5" d="M362.29,125.44H344v-18.3h18.29Zm-16.41-1.88h14.53V109H345.88Z" transform="translate(-49.76 -90.98)"/><path class="cls-5" d="M345.88,125.44h-18.3v-18.3h18.3Zm-16.42-1.88H344V109H329.46Z" transform="translate(-49.76 -90.98)"/><rect class="cls-5" x="325.12" y="115.35" width="23.21" height="1.88" transform="translate(-33.37 181.19) rotate(-45)"/><rect class="cls-5" x="335.79" y="104.69" width="1.88" height="23.21" transform="translate(-33.37 181.18) rotate(-45)"/><path class="cls-5" d="M329.46,125.44H311.17v-18.3h18.29Zm-16.41-1.88h14.53V109H313.05Z" transform="translate(-49.76 -90.98)"/><rect class="cls-5" x="308.71" y="115.35" width="23.21" height="1.88" transform="translate(-38.18 169.58) rotate(-45)"/><rect class="cls-5" x="319.37" y="104.69" width="1.88" height="23.21" transform="translate(-38.18 169.58) rotate(-45)"/><path class="cls-5" d="M313.05,125.44h-18.3v-18.3h18.3Zm-16.42-1.88h14.54V109H296.63Z" transform="translate(-49.76 -90.98)"/><path class="cls-5" d="M295.69,125.44H279.28a1,1,0,0,1-.87-.58.94.94,0,0,1,.2-1L295,107.42l1.33,1.33-14.81,14.81H295.3l16.14-16.14,1.33,1.33-16.41,16.41A1,1,0,0,1,295.69,125.44Z" transform="translate(-49.76 -90.98)"/><rect class="cls-5" x="302.96" y="104.69" width="1.88" height="23.21" transform="translate(-42.99 157.97) rotate(-45)"/><path class="cls-5" d="M362.73,275.28h-18.8V257h18.8Zm-16.87-1.89H360.8V258.86H345.86Z" transform="translate(-49.76 -90.98)"/><polygon class="cls-5" points="311.32 184.02 294.45 167.61 295.81 166.28 312.69 182.69 311.32 184.02"/><polygon class="cls-5" points="295.81 184.02 294.45 182.69 311.32 166.28 312.69 167.61 295.81 184.02"/><path class="cls-5" d="M362.73,340.93h-18.8V322.64h18.8Zm-16.87-1.88H360.8V324.52H345.86Z" transform="translate(-49.76 -90.98)"/><polygon class="cls-5" points="311.32 249.68 294.45 233.26 295.81 231.94 312.69 248.35 311.32 249.68"/><polygon class="cls-5" points="295.81 249.68 294.45 248.35 311.32 231.94 312.69 233.26 295.81 249.68"/><path class="cls-5" d="M362.73,290.13h-18.8V271.84h18.8Zm-16.87-1.88H360.8V273.72H345.86Z" transform="translate(-49.76 -90.98)"/><polygon class="cls-5" points="311.32 198.88 294.45 182.47 295.81 181.14 312.69 197.55 311.32 198.88"/><polygon class="cls-5" points="295.81 198.88 294.45 197.55 311.32 181.14 312.69 182.47 295.81 198.88"/><path class="cls-5" d="M362.73,306.55h-18.8v-18.3h18.8Zm-16.87-1.88H360.8V290.13H345.86Z" transform="translate(-49.76 -90.98)"/><polygon class="cls-5" points="311.32 215.29 294.45 198.88 295.81 197.55 312.69 213.97 311.32 215.29"/><polygon class="cls-5" points="295.81 215.29 294.45 213.97 311.32 197.55 312.69 198.88 295.81 215.29"/><path class="cls-5" d="M362.73,323h-18.8V304.67h18.8Zm-16.87-1.88H360.8V306.55H345.86Z" transform="translate(-49.76 -90.98)"/><polygon class="cls-5" points="311.32 231.71 294.45 215.29 295.81 213.97 312.69 230.38 311.32 231.71"/><polygon class="cls-5" points="295.81 231.71 294.45 230.38 311.32 213.97 312.69 215.29 295.81 231.71"/><path class="cls-1" d="M152.86,189" transform="translate(-49.76 -90.98)"/><path class="cls-1" d="M152.86,190.53a1.56,1.56,0,0,0,0-3.11,1.56,1.56,0,0,0,0,3.11Z" transform="translate(-49.76 -90.98)"/><path class="cls-1" d="M321.56,156.48" transform="translate(-49.76 -90.98)"/><path class="cls-1" d="M321.56,158a1.56,1.56,0,0,0,0-3.11,1.56,1.56,0,0,0,0,3.11Z" transform="translate(-49.76 -90.98)"/><path class="cls-1" d="M391.39,267.79h.69" transform="translate(-49.76 -90.98)"/><path class="cls-1" d="M391.39,269.35h.69a1.56,1.56,0,1,0,0-3.11h-.69a1.56,1.56,0,1,0,0,3.11Z" transform="translate(-49.76 -90.98)"/><path class="cls-1" d="M91.33,290.61" transform="translate(-49.76 -90.98)"/><path class="cls-1" d="M91.33,292.17a1.56,1.56,0,0,0,0-3.12,1.56,1.56,0,0,0,0,3.12Z" transform="translate(-49.76 -90.98)"/><path class="cls-1" d="M240,141.27" transform="translate(-49.76 -90.98)"/><path class="cls-1" d="M240,142.83a1.56,1.56,0,0,0,0-3.11,1.56,1.56,0,0,0,0,3.11Z" transform="translate(-49.76 -90.98)"/></g></svg>