<svg xmlns="http://www.w3.org/2000/svg" width="37.509" height="34.797" viewBox="0 0 37.509 34.797">
  <g id="Icon_ionic-md-wallet" data-name="Icon ionic-md-wallet" transform="translate(-3.375 -4.5)">
    <path id="Path_4226" data-name="Path 4226" d="M17.492,29.628V14.169a3.881,3.881,0,0,1,3.9-3.869H39.365V8.369A3.867,3.867,0,0,0,35.505,4.5H7.39A3.932,3.932,0,0,0,3.375,8.306V35.491A3.932,3.932,0,0,0,7.39,39.3H35.5a3.861,3.861,0,0,0,3.86-3.869V33.5H21.379A3.879,3.879,0,0,1,17.492,29.628Z" transform="translate(0 0)" fill="#114765"/>
    <path id="Path_4227" data-name="Path 4227" d="M17.227,13.078v9.844a1.128,1.128,0,0,0,1.125,1.125H31.5a1.128,1.128,0,0,0,1.125-1.125V13.078A1.128,1.128,0,0,0,31.5,11.953H18.352A1.128,1.128,0,0,0,17.227,13.078Zm5.421,7.165a2.251,2.251,0,1,1,2.1-2.1A2.251,2.251,0,0,1,22.648,20.243Z" transform="translate(8.259 3.898)" fill="#114765"/>
  </g>
</svg>
